<?xml version="1.0" encoding="utf-8"?><svg viewBox="0 0 2000 2000" xmlns="http://www.w3.org/2000/svg" xmlns:xlink="http://www.w3.org/1999/xlink"><style>:root>svg{display:none}:root>svg:target{display:block}</style><svg viewBox="0 0 60 60" fill="none" id="banknote" xmlns="http://www.w3.org/2000/svg"><path d="M49.07 12H9.93A3.84 3.84 0 006 15.86v19.28A3.84 3.84 0 009.93 39h39.14A3.84 3.84 0 0053 35.14V15.86A3.97 3.97 0 0049.07 12zM9.03 36.73V14.77h40.54v21.96H9.03z" fill="#63D1BB"/><path d="M12.96 32.87h32.68V18.63H12.96v14.24zM29.5 20.5a5.33 5.33 0 015.35 5.24 5.33 5.33 0 01-5.35 5.24 5.33 5.33 0 01-5.35-5.24 5.27 5.27 0 015.35-5.24z" fill="#63D1BB"/></svg><svg viewBox="0 0 24 24" fill="none" id="basket" xmlns="http://www.w3.org/2000/svg"><path opacity=".2" d="M21.19 9.86h-3.55l-3.45-6.48c-.2-.38-.61-.48-1.02-.28-.4.19-.5.57-.3.95l3.14 5.8H6.78l3.15-5.8c.2-.38 0-.76-.3-.95a.82.82 0 00-1.02.28L5.16 9.86H1.8c-.4 0-.81.28-.81.76 0 .38.3.76.81.76H2l.92 2.86c-.2.1-.3.28-.3.57 0 .38.3.67.7.67L5.06 21h12.88l1.73-5.52c.4 0 .7-.29.7-.67 0-.2-.1-.48-.3-.57l.92-2.86h.2c.4 0 .81-.28.81-.76s-.4-.76-.81-.76zm-4.57 9.62H6.07l-1.21-4.1h13.08l-1.32 4.1zm1.63-5.53H4.35l-.81-2.66h15.52l-.81 2.66z" fill="#000"/></svg><svg viewBox="0 0 32 22" fill="none" id="camera" xmlns="http://www.w3.org/2000/svg"><path d="M26 10l6-4v16l-6-4v-8zm-2 0v8c0 2.2-1.8 4-4 4H4c-2.2 0-4-1.8-4-4v-8c0-2.2 1.8-4 4-4h10c0-1.1.9-2 2-2V2H5c-.6 0-1-.4-1-1s.4-1 1-1h12c.6 0 1 .4 1 1v3a2 2 0 012 2c2.2 0 4 1.8 4 4zm-12 0H4v8h8v-8zm8 1c0-.6-.4-1-1-1h-4c-.6 0-1 .4-1 1s.4 1 1 1h4c.6 0 1-.4 1-1z" fill="#63D1BB"/></svg><svg viewBox="0 0 52 52" fill="none" id="check-boxtick" xmlns="http://www.w3.org/2000/svg"><path d="M42.37 17.36L41.01 16 21.57 35.29l-9.62-9.6-1.36 1.36 9.62 9.6L21.57 38l1.46-1.36 19.34-19.28z" fill="#000"/></svg><svg viewBox="0 0 52 52" fill="none" id="check-checkbox" xmlns="http://www.w3.org/2000/svg"><path stroke="#444" stroke-width="2" d="M1 1h50v50H1z"/></svg><svg viewBox="0 0 52 52" fill="none" id="check-radio" xmlns="http://www.w3.org/2000/svg"><path d="M25.89 2.87c13.23 0 23.92 10.53 23.92 23.48 0 12.94-10.7 23.47-23.92 23.47-13.23 0-23.93-10.53-23.93-23.47 0-12.95 10.7-23.48 23.93-23.48z" stroke="#444" stroke-width="2"/></svg><svg viewBox="0 0 21 21" fill="none" id="check-radiotick" xmlns="http://www.w3.org/2000/svg"><path fill-rule="evenodd" clip-rule="evenodd" d="M10.24.4a9.82 9.82 0 110 19.64 9.82 9.82 0 010-19.65z" fill="#62D1BA"/></svg><svg viewBox="0 0 60 60" fill="none" id="clew" xmlns="http://www.w3.org/2000/svg"><path d="M9.3 27.95c-.4 2.08-.4 4.16 0 6.24l4.18-3.17-4.17-3.07zm24.55-12.36a17.96 17.96 0 00-15.58.4l7.64 5.53 7.94-5.93zm9.68 11.47l-4.9 3.66 5 3.66c.5-2.37.5-4.94-.1-7.32zm-25.16 19a17.84 17.84 0 0016 .1l-8.26-6.04-7.74 5.94zm-1.32-17.81l-6.32-4.55c-.3.7-.61 1.38-.81 2.08l5.4 3.95 1.73-1.48zm10.89 10.58l8.46 6.14c.3-.2.61-.4.81-.6.3-.2.61-.49.92-.79l-8.45-6.13-1.74 1.38zm-7.33-13.25l-7.54-5.44c-.5.5-.91 1.09-1.32 1.68l7.03 5.14 1.83-1.38zM31.5 36.16l8.26 6.04c.5-.5.92-1.09 1.32-1.68l-7.84-5.74-1.73 1.38zM24.18 22.9l-7.85-5.73c-.2.1-.4.3-.6.4-.42.3-.82.59-1.13.98l7.84 5.64 1.74-1.28zm10.89 10.5l7.13 5.14c.3-.7.62-1.29.92-1.98L36.91 32l-1.84 1.38zm.82-16.73L9.92 36.37c.2.68.5 1.38.81 2.07l27-20.48c-.52-.5-1.13-.89-1.84-1.29zm4.38 3.86c-.3-.4-.61-.79-.92-1.09l-27.5 20.78c.2.5.51.89.82 1.19.1.2.3.4.4.5l27.7-20.78c-.2-.2-.3-.4-.5-.6zm1.63 2.37L14.7 43.49c.51.5 1.12 1 1.74 1.39L42.92 24.9c-.3-.7-.61-1.39-1.02-1.98z" fill="#63D1BB"/></svg><svg viewBox="0 0 32 32" fill="none" id="email" xmlns="http://www.w3.org/2000/svg"><path d="M28 6H4c-2.2 0-4 1.8-4 4v13c0 2.2 1.8 4 4 4h24c2.2 0 4-1.8 4-4V10c0-2.2-1.8-4-4-4zM2 11.3l7 5.3-7 5.3V11.3zM30 23a2 2 0 01-2 2H4a2 2 0 01-2-2l7.8-5.9 4.4 3.3a3 3 0 003.6 0l4.4-3.3L30 23zm0-1.2l-7-5.3 7-5.3v10.6zm-12.8-2.2c-.4.3-.8.4-1.2.4-.4 0-.9-.1-1.2-.4l-4.1-3.1-.8-.6L2 10c0-1.1.9-2 2-2h24a2 2 0 012 2l-12.8 9.6z" fill="#000"/></svg><svg viewBox="0 0 50 82" fill="none" id="flag" xmlns="http://www.w3.org/2000/svg"><path d="M7.77 4.86v38.52L47 24.08 7.77 4.85zM0 81.9V1h3.83v80.9H0z" fill="#63D1BB"/><path d="M3.83 1.1H0V82h3.83V1.1z" fill="#231F20"/></svg><svg viewBox="0 0 60 60" fill="none" id="flower" xmlns="http://www.w3.org/2000/svg"><path d="M29.5 49C38.58 49 46 41.65 46 32.66A16.4 16.4 0 0029.5 49zM17.74 27.65c0 2.55 2.07 4.5 4.54 4.5.93 0 1.86-.31 2.58-.82v.3c0 2.56 2.06 4.5 4.54 4.5a4.49 4.49 0 004.53-4.5v-.3c.73.5 1.65.82 2.58.82a4.49 4.49 0 004.54-4.5 4.43 4.43 0 00-2.58-4.09 4.43 4.43 0 002.58-4.08 4.54 4.54 0 00-7.12-3.68v-.3c0-2.56-2.06-4.5-4.53-4.5a4.49 4.49 0 00-4.54 4.5v.3a4.54 4.54 0 00-2.58-.82 4.49 4.49 0 00-4.54 4.5 4.43 4.43 0 002.58 4.08 4.61 4.61 0 00-2.58 4.1zm11.76-8.68a4.49 4.49 0 110 8.99 4.49 4.49 0 110-9zM13 32.66C13 41.65 20.43 49 29.5 49A16.4 16.4 0 0013 32.66z" fill="#63D1BB"/></svg><svg viewBox="0 0 60 60" fill="none" id="gift-wrap" xmlns="http://www.w3.org/2000/svg"><path d="M12.03 45h12.61V31.27H12.03V45zm28.36-23.3h-7.37c.5-.3 1-.5 1.41-.8 1.62-1.09 2.42-2.57 2.42-3.95 0-1.18-.6-2.17-1.41-2.86A4.72 4.72 0 0032.41 13c-1.2 0-2.42.4-3.33 1.09a10.36 10.36 0 00-3.43 4.05c0 .1-.1.2-.1.2-.3-.6-.6-1.2-1-1.78a8.5 8.5 0 00-2.53-2.47C21 13.49 19.9 13 18.69 13s-2.32.5-3.23 1.28a4.39 4.39 0 00-1.41 3.07c0 .69.2 1.48.6 2.17.6.89 1.41 1.58 2.63 2.17H10.6c-.9 0-1.61.7-1.61 1.58v5.83h15.54v-7.4h1.92v7.4H42v-5.83c0-.89-.7-1.58-1.61-1.58zm-22.5-2.28c-.61-.4-1.02-.79-1.22-1.09-.2-.4-.3-.69-.3-.98 0-.5.2-1 .7-1.49.4-.4 1.01-.69 1.62-.69.7 0 1.41.2 2.02.7a7.6 7.6 0 012.62 3.15c.3.7.6 1.39.8 2.08-3.12-.3-5.14-.99-6.25-1.68zm10.59-1.58a6.84 6.84 0 011.91-1.88c.71-.5 1.42-.69 2.02-.69.6 0 1.11.2 1.52.5.4.3.6.69.6 1.18 0 .5-.3 1.28-1.51 2.07-1.11.8-3.13 1.68-6.16 2.28.3-1.19.91-2.47 1.62-3.46zM26.46 45h12.61V31.27H26.46V45z" fill="#63D1BB"/></svg><svg viewBox="0 0 22 22" fill="none" id="header-nav-burger" xmlns="http://www.w3.org/2000/svg"><path d="M21 4H1v2h20V4zm0 6H1v2h20v-2zm0 6H1v2h20v-2z" fill="#231F20"/></svg><svg viewBox="0 0 60 60" fill="none" id="heart" xmlns="http://www.w3.org/2000/svg"><path d="M47 25.45c0-4.66-4.02-8.45-8.96-8.45-3.5 0-6.5 1.94-8.04 4.66A9.12 9.12 0 0021.96 17C17.02 17 13 20.79 13 25.45 13 34.29 28.15 44 30 44c1.96 0 17-9.62 17-18.55z" fill="#63D1BB"/></svg><svg viewBox="0 0 27 34" fill="none" id="htmlacademy-mob" xmlns="http://www.w3.org/2000/svg"><path d="M13.65 0h-.1L0 1.396v24.627L13.55 34 27 26.023V1.396L13.65 0zm11.443 12.065L13.55 5.285v-.1h-.1l-.1-.1v.1l-11.443 6.88V3.09L13.45 1.894l11.643 1.197v8.974zM13.45 6.78l11.543 6.68-4.517 2.593-7.127-4.188v1.396l5.922 3.49-.903.498-5.019-2.99v1.395l3.815 2.293-.803.499-3.012-1.795v1.396l1.908 1.097-1.807 1.097-11.443-6.68L13.45 6.78zM1.907 15.056l11.442 6.78v.997L5.42 18.147v1.396l8.03 4.785v1.097L5.42 20.74v1.396l8.03 4.786 8.13-4.886V16.85l3.413-1.994v9.971l-11.543 6.88-11.543-6.78v-9.871z" fill="#63D1BB"/></svg><svg viewBox="0 0 62 62" fill="none" id="interior" xmlns="http://www.w3.org/2000/svg"><path d="M35.16 37.72c-.3 1-.2 2.19 0 3.58.5 2.59 1.7 5.97 2.4 9.65h5.08c.7-3.58 1.9-6.96 2.5-9.65.3-1.4.3-2.69 0-3.58-.3-.9-.9-1.6-2-2.3h-5.98c-1.2.7-1.8 1.4-2 2.3zm11.77 19.9H33.17c-1.3 0-2.3 1-2.3 2.2V62h18.36v-2.19c0-1.2-1-2.19-2.3-2.19zm7.09-55.43H42.34c0-1.2-1-2.19-2.29-2.19-1.3 0-2.3 1-2.3 2.19H26.09L20 27.57c.8-.5 1.6-1 2.6-1 1.39 0 2.19.8 2.89 1.4.7.6 1.2.8 1.4.8.3 0 .8-.3 1.49-.8.7-.5 1.6-1.4 2.9-1.4 1.29 0 2.19.8 2.88 1.4.7.5 1.2.8 1.5.8.1 0 .3-.1.6-.2.2-.1.5-.4.9-.6.5-.4 1.1-1 2-1.2.3-.1.6-.1.89-.1 1.3 0 2.2.8 2.9 1.4.7.5 1.19.8 1.49.8.3 0 .8-.3 1.4-.8.7-.6 1.6-1.4 2.89-1.4 1.4 0 2.2.8 2.9 1.4.29.3.59.5.89.6.2.1.4.2.6.2.3 0 .8-.3 1.4-.9.7-.6 1.59-1.4 2.89-1.4 1 0 1.8.5 2.59 1L54.02 2.19zM43.44 53.14h-6.88c-.7 0-1.1.5-1.1 1.1 0 .6.5 1.1 1.1 1.1h6.88c.7 0 1.1-.5 1.1-1.1.1-.6-.4-1.1-1.1-1.1z" fill="#149080"/><path d="M40.05 28.76c-.1 0-.3.1-.6.2-.2.1-.4.3-.6.4v3.68h2.3v-3.58c-.5-.4-.9-.7-1.1-.7z" fill="#149080"/></svg><svg viewBox="0 0 22 22" fill="none" id="menu-close" xmlns="http://www.w3.org/2000/svg"><path d="M21 2.37L19.57 1l-9.02 8.59L1.43 1 0 2.37l9.01 8.68L0 19.63 1.43 21l9.12-8.59L19.57 21 21 19.63l-9.01-8.58L21 2.37z" fill="#000"/></svg><svg viewBox="0 0 32 32" fill="none" id="phone" xmlns="http://www.w3.org/2000/svg"><path d="M20.44 25h-1.1a17.63 17.63 0 01-11.2-5.73A18.8 18.8 0 013 7.72V6.33c.1-.89.5-1.48 1.1-2.07.61-.7 1.62-1.48 2.53-1.58.7 0 1.81.5 2.22 1.09.4.49.6 1.58.8 2.37.2.88.6 1.97.5 2.76-.2 1.19-1.8 1.68-2.21 2.57a16.4 16.4 0 007.56 8.2c.8-.5 1.61-1.88 2.82-1.88.4 0 1.01.2 1.41.3.5.1.91.3 1.31.49.71.3 2.02.6 2.42 1.19.4.59.7 1.58.6 2.17-.3 1.28-2.41 2.66-3.62 3.06zM15.6 2.48a10.8 10.8 0 0110.9 10.67H28C28 6.43 22.46 1 15.6 1v1.48z" fill="#000"/><path d="M15.6 10.19v1.58c.8 0 1.41.59 1.41 1.38h1.61a3 3 0 00-3.02-2.96zm0-3.07a6.11 6.11 0 016.15 6.03h1.61c0-4.15-3.42-7.5-7.66-7.5v1.47h-.1z" fill="#000"/></svg><svg viewBox="0 0 60 60" fill="none" id="rocket" xmlns="http://www.w3.org/2000/svg"><path d="M40.95 21.75c-3.64-1-7.89-1.69-12.54-1.69-2.93 0-5.56.2-7.79.6L13.75 16H.1l5.87 6.15h8.49c-4.65 1.58-6.88 3.47-6.88 3.47v3.76s2.33 1.89 6.98 3.47h-8.7L0 39h13.65l6.87-4.66a49.05 49.05 0 0020.32-1.09 10.14 10.14 0 01-1.92-5.85c.1-1.98.91-3.87 2.03-5.65zm3.54.99c-1.32 1.59-2.03 3.17-2.03 4.76 0 1.59.71 3.17 2.03 4.76C50.96 30.08 55 27.5 55 27.5s-4.04-2.58-10.51-4.76z" fill="#63D1BB"/></svg><svg viewBox="0 0 24 24" fill="none" id="search" xmlns="http://www.w3.org/2000/svg"><path opacity=".2" d="M20.7 19.06l-3.48-3.48a7.63 7.63 0 001.53-4.7c0-4.4-3.48-7.88-7.88-7.88A7.81 7.81 0 003 10.88c0 4.4 3.48 7.87 7.88 7.87 1.73 0 3.37-.61 4.7-1.53l3.48 3.47c.2.2.4.31.82.31.6 0 1.12-.51 1.12-1.13 0-.2-.1-.5-.3-.81zM5.24 10.88a5.67 5.67 0 015.63-5.63 5.67 5.67 0 015.62 5.63 5.67 5.67 0 01-5.63 5.62 5.67 5.67 0 01-5.62-5.63z" fill="#000"/></svg><svg viewBox="0 0 50 50" fill="none" id="slider-arrow" xmlns="http://www.w3.org/2000/svg"><path d="M0 23h42.3l-8.1-8.2L37 12l13 13-13 13-2.8-2.8 8.1-8.2H0v-4z" fill="#000"/></svg><svg viewBox="0 0 28 28" fill="none" id="social-telegram" xmlns="http://www.w3.org/2000/svg"><path fill-rule="evenodd" clip-rule="evenodd" d="M23.46 5.62c.18.15.27.38.23.6L21.06 22a.66.66 0 01-1.01.43l-7.88-5.25a.66.66 0 01-.15-.95l2.61-3.27-4.36 2.9a.66.66 0 01-.65.05l-5.26-2.63a.66.66 0 01.08-1.2L22.82 5.5a.66.66 0 01.64.12zM6.33 12.79l3.53 1.77 7.56-5.05a.66.66 0 01.88.96l-4.8 6 6.43 4.3 2.28-13.65-15.88 5.67z" fill="#231F20"/></svg><svg viewBox="0 0 28 28" fill="none" id="social-vkontakte" xmlns="http://www.w3.org/2000/svg"><path d="M0 7.84c0-.86.52-1.32 1.55-1.38l3.97.02c.26 0 .44.13.53.38.4 1.26.86 2.34 1.37 3.25.5.92 1.17 1.97 1.99 3.16.07.15.18.23.34.23.13 0 .22-.06.3-.18l.07-.28.03-4.35c0-.3-.07-.5-.23-.6-.15-.1-.43-.18-.83-.23-.32-.05-.48-.23-.48-.55 0-.07 0-.12.02-.15.38-1.09 1.44-1.63 3.2-1.63l1.5-.03c.67 0 1.23.16 1.67.48.44.32.67.82.67 1.5v5.72c.12.08.24.12.34.12.27 0 .5-.15.7-.45 1.95-2.58 3-4.31 3.17-5.18 0-.02.01-.06.05-.13.12-.25.33-.47.61-.65.29-.19.53-.31.75-.38a.55.55 0 01.24-.05h4.13l.26.03c.36 0 .63.16.83.47.07.1.12.21.15.33a2.4 2.4 0 01.06.55v.18a6.11 6.11 0 01-.94 2.2c-.5.78-1.15 1.62-1.93 2.53-.79.9-1.27 1.5-1.47 1.78-.16.2-.24.39-.24.56 0 .13.07.28.21.45l3.9 4.63c.2.26.31.56.31.88 0 .38-.16.7-.48.95-.32.25-.7.4-1.14.43l-.46.02h-4.04c-.02 0-.06 0-.11.02a.86.86 0 01-.1.01c-.4 0-.76-.16-1.1-.48-.12-.13-.96-1.12-2.5-2.97a1.39 1.39 0 00-.38-.32 38.47 38.47 0 00-.53 2.24l-.08.42a1.4 1.4 0 01-1.12 1.06l-.37.02h-2.61c-1.48 0-2.95-.63-4.41-1.9a19.3 19.3 0 01-3.96-4.95A47.51 47.51 0 01.13 8.57 1.92 1.92 0 010 7.84zm16.01 6.51c-.37 0-.7-.1-1.01-.29a.9.9 0 01-.45-.79V7.5c0-.34-.1-.58-.27-.72-.18-.14-.49-.21-.93-.21l-1.52.05c-.76 0-1.34.12-1.73.37.78.36 1.17.93 1.17 1.71v4.43a1.5 1.5 0 01-.53 1.04c-.32.28-.68.42-1.07.42-.53 0-.94-.24-1.22-.73a26.16 26.16 0 01-3.1-5.63l-.23-.66-3.55-.02c-.23 0-.36.01-.38.03-.03.03-.04.1-.04.22 0 .15.01.3.05.48l.56 1.4c1.49 3.64 3.11 6.51 4.86 8.6 1.75 2.1 3.47 3.15 5.16 3.15h2.66c.1 0 .19-.03.24-.09.05-.06.1-.17.13-.34l.06-.25.5-2.21c.15-.3.27-.5.38-.6.2-.2.42-.28.69-.28.43 0 .86.24 1.3.73l2.27 2.71c.14.22.3.33.45.33h4.4c.53 0 .8-.13.8-.38a.47.47 0 00-.08-.25l-3.87-4.55c-.3-.35-.45-.73-.45-1.13 0-.4.14-.8.43-1.16.23-.34.68-.9 1.34-1.67.67-.78 1.25-1.51 1.75-2.19.5-.68.82-1.3.98-1.85l.08-.33a.37.37 0 01-.02-.16c0-.07-.01-.14-.03-.19h-4.18c-.27.1-.48.25-.64.45l-.16.48c-.45 1.16-1.6 2.94-3.5 5.36-.36.33-.8.5-1.3.5z" fill="#231F20"/></svg><svg viewBox="0 0 28 28" fill="none" id="social-youtube" xmlns="http://www.w3.org/2000/svg"><path d="M17.85 13.45l-5.24-3.49a.65.65 0 00-1.01.55v6.98a.65.65 0 001.01.55l5.24-3.5a.65.65 0 000-1.09zm-4.94 2.82v-4.54L16.3 14l-3.4 2.27zM25.39 7.7a2.4 2.4 0 00-1.45-1.64c-3.72-1.43-9.69-1.4-9.94-1.4s-6.22-.03-9.94 1.4A2.4 2.4 0 002.61 7.7 25.32 25.32 0 002 14c0 3.26.33 5.23.61 6.3a2.4 2.4 0 001.45 1.63c3.72 1.43 9.69 1.4 9.94 1.4h.08c.75 0 6.31-.04 9.86-1.4a2.4 2.4 0 001.45-1.64c.28-1.06.61-3.03.61-6.29 0-3.26-.33-5.23-.61-6.3zm-1.27 12.26a1.1 1.1 0 01-.65.74c-3.5 1.34-9.4 1.32-9.47 1.32-.07 0-5.98.02-9.47-1.32a1.1 1.1 0 01-.65-.74c-.27-1-.57-2.85-.57-5.97 0-3.12.3-4.96.57-5.97a1.1 1.1 0 01.65-.74c3.5-1.34 9.4-1.32 9.47-1.32.07 0 5.98-.02 9.47 1.32a1.1 1.1 0 01.65.74c.27 1 .57 2.85.57 5.97 0 3.12-.3 4.96-.57 5.97z" fill="#231F20"/></svg><svg viewBox="0 0 2000 2000" id="sprite" xmlns="http://www.w3.org/2000/svg"/><svg viewBox="0 0 62 62" fill="none" id="toy" xmlns="http://www.w3.org/2000/svg"><path opacity=".5" d="M1 46l27.4 16V38.54L1 22.44v23.55zm51.3-31.52V17c0 1.81-3.5 3.32-7.7 3.32-4.3 0-7.7-1.5-7.7-3.32v-4.13c.3 1.71 3.6 3.12 7.7 3.12 4.3 0 7.7-1.5 7.7-3.32 0-1.81-3.5-3.32-7.7-3.32h-1l-5-2.92v3.12c0 1.81-3.5 3.32-7.7 3.32-2.7 0-5-.6-6.4-1.5-.2-.2-.4-.41-.7-.61-.4-.4-.6-.8-.6-1.21V6.53l-4.8 2.82h-1.1c-4.3 0-7.7 1.5-7.7 3.32 0 1.81 3.5 3.32 7.7 3.32 4.1 0 7.4-1.4 7.7-3.12V17c0 1.81-3.5 3.32-7.7 3.32-4.3 0-7.7-1.5-7.7-3.32v-2.42l-6 3.53 27.5 16.1 27.4-16-6.2-3.73zM38.7 24.75c0 1.81-3.5 3.32-7.7 3.32-4.3 0-7.7-1.5-7.7-3.32v-4.13c.3 1.72 3.6 3.13 7.7 3.13s7.4-1.41 7.7-3.13v4.13zm-5.1 14V62L61 46V22.73l-27.4 16zm-2.7-30.1c4.3 0 7.7-1.52 7.7-3.33S35.1 2 30.9 2c-4.3 0-7.7 1.51-7.7 3.32 0 1.81 3.4 3.32 7.7 3.32z" fill="#149080"/></svg><svg viewBox="0 0 101 77" fill="none" id="video" xmlns="http://www.w3.org/2000/svg"><path d="M97.29 18.15s-.9-7.02-3.82-10.13c-3.61-4.01-7.73-4.11-9.54-4.31-13.35-1-33.43-1-33.43-1h-.1s-20.08 0-33.43 1c-1.91.2-5.93.3-9.54 4.31-2.81 3.1-3.82 10.13-3.82 10.13s-.9 8.22-.9 16.44v7.72c0 8.22.9 16.44.9 16.44s.9 7.02 3.82 10.13c3.61 4 8.43 3.9 10.54 4.31 7.63.8 32.53 1 32.53 1s20.08 0 33.43-1c1.91-.2 5.93-.3 9.54-4.31 2.81-3.1 3.82-10.13 3.82-10.13s.9-8.22.9-16.44v-7.72c0-8.22-.9-16.44-.9-16.44z" fill="#63D1BB"/><path d="M50.4 77c-1 0-25.1-.3-32.73-1h-.2c-.3-.1-.7-.1-1.1-.2-2.52-.3-7.23-.9-10.85-5.02C2.11 67.18 1.1 59.96 1 59.15c0-.3-1-8.52-1-16.74v-7.72c0-8.32.9-16.44.9-16.74v-.1c.1-.8 1.2-7.92 4.52-11.63A15.48 15.48 0 0116.16 1.1c.2 0 .4 0 .5-.1h.1C30.13 0 50.2 0 50.4 0h.1c.2 0 20.28 0 33.63 1h.1c.2 0 .3 0 .5.1 2.21.2 6.73.7 10.75 5.12 3.41 3.6 4.42 10.82 4.52 11.63 0 .3 1 8.52 1 16.84v7.72c0 8.32-.9 16.44-1 16.74v.1c-.1.8-1.2 8.02-4.52 11.63A15.48 15.48 0 0184.74 76c-.2 0-.4 0-.5.1h-.1c-13.36.9-33.54.9-33.74.9zm-32.03-6.42c7.53.7 31.33 1 32.13 1 .7 0 20.18 0 33.13-1 .2 0 .4 0 .6-.1 1.81-.2 4.62-.5 7.23-3.3 1.8-2.01 2.91-6.92 3.11-8.63.1-.5.9-8.42.9-16.14v-7.72c0-7.82-.9-15.64-1-16.14-.3-2.4-1.4-6.82-3.1-8.52-2.62-2.91-5.43-3.11-7.24-3.31-.2 0-.4 0-.6-.1-13.15-1-32.93-1-33.13-1h-.1c-.2 0-20.08 0-33.13 1-.2 0-.4 0-.6.1-1.81.2-4.62.5-7.23 3.3-1.81 2.01-2.91 6.92-3.12 8.63-.1.6-.9 8.42-.9 16.14v7.72c0 7.72.9 15.64.9 16.14.3 2.4 1.41 6.82 3.12 8.52 2.3 2.61 5.32 3.01 7.53 3.31.6-.1 1 0 1.5.1z" fill="#fff"/><path d="M38.45 20.55v35.8L68.37 38.5 38.45 20.55z" fill="#fff"/></svg><svg fill="none" viewBox="0 0 37 24" id="wave-decore" xmlns="http://www.w3.org/2000/svg"><path d="M749.8 0c-9.7 0-9.7 9.9-19.2 9.9-9.6 0-9.7-9.9-19.3-9.9-9.5 0-9.6 9.9-19.2 9.9S682.5 0 672.8 0c-9.6 0-9.6 9.9-19.2 9.9S644 0 634.4 0s-9.6 9.9-19.2 9.9S605.4 0 595.8 0c-9.7 0-9.7 9.9-19.2 9.9-9.6 0-9.7-9.9-19.3-9.9-9.7 0-9.7 9.9-19.2 9.9-9.7 0-9.7-9.9-19.3-9.9-9.7 0-9.7 9.9-19.2 9.9-9.7 0-9.7-9.9-19.3-9.9-9.5 0-9.7 9.9-19.3 9.9-9.6 0-9.6-9.9-19.2-9.9-9.7 0-9.7 9.9-19.2 9.9-9.7 0-9.7-9.9-19.3-9.9-9.7 0-9.7 9.9-19.2 9.9-9.7 0-9.7-9.9-19.3-9.9-9.6 0-9.6 9.9-19.2 9.9S336 0 326.4 0s-9.6 9.9-19.3 9.9c-9.6 0-9.6-9.9-19.3-9.9-9.6 0-9.6 9.9-19.2 9.9-9.7 0-9.7-9.9-19.3-9.9-9.7 0-9.7 9.9-19.3 9.9-9.6 0-9.6-9.9-19.3-9.9-9.6 0-9.6 9.9-19.3 9.9-9.6 0-9.6-9.9-19.3-9.9-9.6 0-9.6 9.9-19.2 9.9S143.3 0 133.6 0c-9.6 0-9.6 9.9-19.2 9.9-9.7 0-9.7-9.9-19.3-9.9-9.7 0-9.7 9.9-19.3 9.9-9.6 0-9.6-9.9-19.3-9.9-9.4 0-9.4 9.9-19 9.9S27.9 0 18.3 0 8.6 9.9-1 9.9V24h770V9.9c-9.6 0-9.6-9.9-19.2-9.9z" fill="#fff"/></svg><svg viewBox="0 0 16 6" fill="none" id="zigzag-line" xmlns="http://www.w3.org/2000/svg"><path d="M320 6c-2.504 0-3.812-1.2-4.87-2.165-.946-.861-1.641-1.487-3.116-1.487-1.503 0-2.171.626-3.117 1.487C307.84 4.8 306.532 6 304.028 6c-2.505 0-3.812-1.2-4.87-2.165-.946-.861-1.641-1.487-3.116-1.487s-2.171.626-3.117 1.487C291.868 4.8 290.56 6 288.056 6c-2.505 0-3.813-1.2-4.87-2.165-.946-.861-1.642-1.487-3.116-1.487-1.503 0-2.171.626-3.117 1.487C275.896 4.8 274.588 6 272.083 6c-2.504 0-3.812-1.2-4.869-2.165-.946-.861-1.642-1.487-3.117-1.487-1.502 0-2.17.626-3.116 1.487C259.812 4.8 258.504 6 256 6s-3.812-1.2-4.87-2.165c-.946-.861-1.641-1.487-3.116-1.487-1.503 0-2.171.626-3.117 1.487C243.84 4.8 242.532 6 240.028 6c-2.505 0-3.812-1.2-4.87-2.165-.946-.861-1.641-1.487-3.116-1.487-1.503 0-2.171.626-3.117 1.487C227.812 4.8 226.504 6 224 6s-3.812-1.2-4.87-2.165c-.946-.861-1.641-1.487-3.116-1.487-1.503 0-2.171.626-3.117 1.487C211.84 4.8 210.532 6 208.028 6c-2.505 0-3.812-1.2-4.87-2.165-.946-.861-1.641-1.487-3.116-1.487s-2.171.626-3.117 1.487C195.84 4.8 194.504 6 192 6s-3.812-1.2-4.87-2.165c-.946-.861-1.641-1.487-3.116-1.487-1.503 0-2.171.626-3.117 1.487C179.84 4.8 178.532 6 176.028 6c-2.505 0-3.812-1.2-4.87-2.165-.946-.861-1.641-1.487-3.116-1.487-1.503 0-2.171.626-3.117 1.487C163.868 4.8 162.56 6 160.056 6c-2.505 0-3.813-1.2-4.87-2.165-.946-.861-1.642-1.487-3.116-1.487-1.475 0-2.171.626-3.117 1.487C147.896 4.8 146.588 6 144.083 6c-2.504 0-3.812-1.2-4.869-2.165-.946-.861-1.642-1.487-3.117-1.487-1.502 0-2.17.626-3.116 1.487C131.923 4.8 130.616 6 128.111 6c-2.504 0-3.812-1.2-4.869-2.165-.946-.861-1.642-1.487-3.117-1.487-1.502 0-2.17.626-3.116 1.487C115.951 4.8 114.643 6 112.139 6s-3.812-1.2-4.869-2.165c-.947-.861-1.642-1.487-3.117-1.487-1.503 0-2.17.626-3.116 1.487C99.979 4.8 98.671 6 96.167 6s-3.812-1.2-4.87-2.165c-.946-.861-1.641-1.487-3.116-1.487s-2.17.626-3.117 1.487C84.007 4.8 82.7 6 80.194 6c-2.504 0-3.811-1.2-4.869-2.165-.946-.861-1.642-1.487-3.116-1.487-1.503 0-2.17.626-3.117 1.487C68.035 4.8 66.727 6 64.222 6c-2.504 0-3.812-1.2-4.869-2.165-.946-.861-1.642-1.487-3.117-1.487-1.502 0-2.17.626-3.116 1.487C52.063 4.8 50.755 6 48.25 6c-2.504 0-3.812-1.2-4.87-2.165-.945-.861-1.64-1.487-3.116-1.487-1.502 0-2.17.626-3.116 1.487C35.84 4.8 34.504 6 32 6c-2.504 0-3.812-1.2-4.87-2.165-.946-.861-1.641-1.487-3.116-1.487-1.503 0-2.17.626-3.117 1.487C19.84 4.8 18.532 6 16.027 6c-2.504 0-3.811-1.2-4.869-2.165-.974-.861-1.67-1.487-3.144-1.487-1.503 0-2.17.626-3.117 1.487C3.812 4.8 2.504 6 0 6V3.652c1.503 0 2.17-.626 3.117-1.487C4.174 1.2 5.482 0 8.014 0c2.504 0 3.812 1.2 4.87 2.165.946.861 1.641 1.487 3.116 1.487 1.503 0 2.17-.626 3.116-1.487C20.174 1.2 21.51 0 24.014 0c2.504 0 3.812 1.2 4.87 2.165.946.861 1.641 1.487 3.116 1.487 1.503 0 2.17-.626 3.117-1.487C36.174 1.2 37.482 0 39.986 0c2.503 0 3.811 1.2 4.869 2.165.946.861 1.641 1.487 3.116 1.487 1.503 0 2.17-.626 3.117-1.487C52.146 1.2 53.454 0 55.959 0c2.504 0 3.811 1.2 4.869 2.165.946.861 1.642 1.487 3.116 1.487 1.503 0 2.17-.626 3.117-1.487C68.118 1.2 69.426 0 71.93 0c2.504 0 3.812 1.2 4.869 2.165.946.861 1.642 1.487 3.117 1.487 1.502 0 2.17-.626 3.116-1.487C84.09 1.2 85.398 0 87.903 0c2.504 0 3.812 1.2 4.87 2.165.945.861 1.64 1.487 3.116 1.487 1.502 0 2.17-.626 3.116-1.487C100.063 1.2 101.37 0 103.875 0c2.504 0 3.812 1.2 4.869 2.165.946.861 1.642 1.487 3.117 1.487s2.17-.626 3.116-1.487C116.035 1.2 117.343 0 119.847 0s3.812 1.2 4.87 2.165c.946.861 1.641 1.487 3.116 1.487 1.503 0 2.17-.626 3.117-1.487C132.007 1.2 133.315 0 135.819 0c2.504 0 3.812 1.2 4.87 2.165.946.861 1.641 1.487 3.116 1.487 1.503 0 2.171-.626 3.117-1.487C147.979 1.2 149.287 0 151.791 0c2.505 0 3.812 1.2 4.87 2.165.946.861 1.642 1.487 3.116 1.487 1.503 0 2.171-.626 3.117-1.487C163.951 1.2 165.259 0 167.763 0c2.505 0 3.813 1.2 4.87 2.165.946.861 1.642 1.487 3.117 1.487 1.502 0 2.17-.626 3.116-1.487C179.923 1.2 181.231 0 183.736 0c2.504 0 3.812 1.2 4.869 2.165.946.861 1.642 1.487 3.117 1.487 1.502 0 2.17-.626 3.116-1.487C195.896 1.2 197.203 0 199.708 0c2.504 0 3.812 1.2 4.869 2.165.946.861 1.642 1.487 3.117 1.487 1.503 0 2.17-.626 3.116-1.487C211.868 1.2 213.176 0 215.68 0s3.812 1.2 4.87 2.165c.946.861 1.641 1.487 3.116 1.487 1.503 0 2.171-.626 3.117-1.487C228.174 1.2 229.482 0 232.014 0c2.504 0 3.812 1.2 4.869 2.165.947.861 1.642 1.487 3.117 1.487s2.17-.626 3.117-1.487C244.174 1.2 245.482 0 247.986 0c2.504 0 3.812 1.2 4.87 2.165.946.861 1.641 1.487 3.116 1.487s2.171-.626 3.117-1.487C260.174 1.2 261.482 0 264.014 0s3.812 1.2 4.869 2.165c.947.861 1.642 1.487 3.117 1.487s2.17-.626 3.117-1.487C276.174 1.2 277.482 0 279.986 0c2.504 0 3.812 1.2 4.87 2.165.946.861 1.641 1.487 3.116 1.487 1.503 0 2.171-.626 3.117-1.487C292.146 1.2 293.454 0 295.958 0c2.505 0 3.812 1.2 4.87 2.165.946.861 1.642 1.487 3.116 1.487 1.475 0 2.171-.626 3.117-1.487C308.118 1.2 309.426 0 311.93 0c2.505 0 3.813 1.2 4.87 2.165.946.861 1.642 1.487 3.117 1.487V6H320z" fill="#F1F1F1"/></svg></svg>