<svg viewBox="0 0 28 28" fill="none" xmlns="http://www.w3.org/2000/svg"><path d="m17.85 13.45-5.24-3.49a.65.65 0 0 0-1.01.55v6.98a.65.65 0 0 0 1.01.55l5.24-3.5a.65.65 0 0 0 0-1.09Zm-4.94 2.82v-4.54L16.3 14l-3.4 2.27ZM25.39 7.7a2.4 2.4 0 0 0-1.45-1.64c-3.72-1.43-9.69-1.4-9.94-1.4s-6.22-.03-9.94 1.4A2.4 2.4 0 0 0 2.61 7.7 25.32 25.32 0 0 0 2 14c0 3.26.33 5.23.61 6.3a2.4 2.4 0 0 0 1.45 1.63c3.72 1.43 9.69 1.4 9.94 1.4h.08c.75 0 6.31-.04 9.86-1.4a2.4 2.4 0 0 0 1.45-1.64c.28-1.06.61-3.03.61-6.29 0-3.26-.33-5.23-.61-6.3Zm-1.27 12.26a1.1 1.1 0 0 1-.65.74c-3.5 1.34-9.4 1.32-9.47 1.32-.07 0-5.98.02-9.47-1.32a1.1 1.1 0 0 1-.65-.74c-.27-1-.57-2.85-.57-5.97 0-3.12.3-4.96.57-5.97a1.1 1.1 0 0 1 .65-.74c3.5-1.34 9.4-1.32 9.47-1.32.07 0 5.98-.02 9.47 1.32a1.1 1.1 0 0 1 .65.74c.27 1 .57 2.85.57 5.97 0 3.12-.3 4.96-.57 5.97Z" fill="#231F20"/></svg>